<svg width="28" height="28" viewBox="0 0 28 28" fill="none" xmlns="http://www.w3.org/2000/svg">
<path d="M1.3549 0C0.604093 0 6.10352e-05 0.720192 6.10352e-05 1.61538V4.84615C6.10352e-05 5.74135 0.604093 6.46154 1.3549 6.46154H4.06458C4.81538 6.46154 5.41942 5.74135 5.41942 4.84615V1.61538C5.41942 0.720192 4.81538 0 4.06458 0H1.3549ZM9.93554 1.07692C8.93635 1.07692 8.12909 2.03942 8.12909 3.23077C8.12909 4.42212 8.93635 5.38462 9.93554 5.38462H26.1936C27.1928 5.38462 28.0001 4.42212 28.0001 3.23077C28.0001 2.03942 27.1928 1.07692 26.1936 1.07692H9.93554ZM9.93554 11.8462C8.93635 11.8462 8.12909 12.8087 8.12909 14C8.12909 15.1913 8.93635 16.1538 9.93554 16.1538H26.1936C27.1928 16.1538 28.0001 15.1913 28.0001 14C28.0001 12.8087 27.1928 11.8462 26.1936 11.8462H9.93554ZM9.93554 22.6154C8.93635 22.6154 8.12909 23.5779 8.12909 24.7692C8.12909 25.9606 8.93635 26.9231 9.93554 26.9231H26.1936C27.1928 26.9231 28.0001 25.9606 28.0001 24.7692C28.0001 23.5779 27.1928 22.6154 26.1936 22.6154H9.93554ZM6.10352e-05 12.3846V15.6154C6.10352e-05 16.5106 0.604093 17.2308 1.3549 17.2308H4.06458C4.81538 17.2308 5.41942 16.5106 5.41942 15.6154V12.3846C5.41942 11.4894 4.81538 10.7692 4.06458 10.7692H1.3549C0.604093 10.7692 6.10352e-05 11.4894 6.10352e-05 12.3846ZM1.3549 21.5385C0.604093 21.5385 6.10352e-05 22.2587 6.10352e-05 23.1538V26.3846C6.10352e-05 27.2798 0.604093 28 1.3549 28H4.06458C4.81538 28 5.41942 27.2798 5.41942 26.3846V23.1538C5.41942 22.2587 4.81538 21.5385 4.06458 21.5385H1.3549Z" fill="#F7737A"/>
</svg>
