<svg width="28" height="28" viewBox="0 0 28 28" fill="none" xmlns="http://www.w3.org/2000/svg">
<path d="M4.10156 4.10156L2.24219 2.24219C1.41641 1.41641 0 2.00156 0 3.16641V9.1875C0 9.91484 0.585156 10.5 1.3125 10.5H7.33359C8.50391 10.5 9.08906 9.08359 8.26328 8.25781L6.57891 6.57344C8.47656 4.67578 11.1016 3.5 14 3.5C19.7969 3.5 24.5 8.20312 24.5 14C24.5 19.7969 19.7969 24.5 14 24.5C11.7688 24.5 9.70156 23.8055 8.00078 22.6187C7.20781 22.0664 6.11953 22.2578 5.56172 23.0508C5.00391 23.8438 5.20078 24.932 5.99375 25.4898C8.26875 27.0703 11.0305 28 14 28C21.7328 28 28 21.7328 28 14C28 6.26719 21.7328 0 14 0C10.1336 0 6.63359 1.56953 4.10156 4.10156ZM14 7C13.2727 7 12.6875 7.58516 12.6875 8.3125V14C12.6875 14.35 12.8242 14.6836 13.0703 14.9297L17.0078 18.8672C17.5219 19.3813 18.3531 19.3813 18.8617 18.8672C19.3703 18.3531 19.3758 17.5219 18.8617 17.0133L15.307 13.4586V8.3125C15.307 7.58516 14.7219 7 13.9945 7H14Z" fill="#F7737A"/>
</svg>
