<svg width="50" height="50" viewBox="0 0 50 50" fill="none" xmlns="http://www.w3.org/2000/svg">
<path d="M38.9648 37.5195C36.8066 33.7695 32.7539 31.25 28.125 31.25H21.875C17.2461 31.25 13.1934 33.7695 11.0352 37.5195C14.4727 41.3477 19.4531 43.75 25 43.75C30.5469 43.75 35.5273 41.3379 38.9648 37.5195ZM50 25C50 38.8086 38.8086 50 25 50C11.1914 50 0 38.8086 0 25C0 11.1914 11.1914 0 25 0C38.8086 0 50 11.1914 50 25ZM25 26.5625C28.8867 26.5625 32.0312 23.418 32.0312 19.5312C32.0312 15.6445 28.8867 12.5 25 12.5C21.1133 12.5 17.9688 15.6445 17.9688 19.5312C17.9688 23.418 21.1133 26.5625 25 26.5625Z" fill="black"/>
</svg>
