<svg width="28" height="28" viewBox="0 0 28 28" fill="none" xmlns="http://www.w3.org/2000/svg">
<path d="M27.9926 13.9699C27.9926 14.9541 27.2634 15.7251 26.437 15.7251H24.8813L24.9153 24.4843C24.925 26.4253 23.5298 28 21.8039 28H6.2276C4.51148 28 3.11623 26.4308 3.11623 24.5007V15.7251H1.55568C0.680602 15.7251 -1.14441e-05 14.9596 -1.14441e-05 13.9699C-1.14441e-05 13.4779 0.145834 13.0404 0.486141 12.6577L12.9511 0.437428C13.2914 0.0546902 13.6803 1.33514e-05 14.0206 1.33514e-05C14.3609 1.33514e-05 14.7499 0.109367 15.0415 0.382751L27.4579 12.6577C27.8468 13.0404 28.0413 13.4779 27.9926 13.9699ZM17.1126 12.2476C17.1126 10.3175 15.7173 8.74831 14.0012 8.74831C12.2851 8.74831 10.8898 10.3175 10.8898 12.2476C10.8898 14.1777 12.2851 15.7469 14.0012 15.7469C15.7173 15.7469 17.1126 14.1777 17.1126 12.2476ZM12.4455 17.4966C10.2967 17.4966 8.55627 19.454 8.55627 21.8707C8.55627 22.3519 8.9063 22.7456 9.33412 22.7456H18.6682C19.0961 22.7456 19.4461 22.3519 19.4461 21.8707C19.4461 19.454 17.7057 17.4966 15.5569 17.4966H12.4455Z" fill="#F7737A"/>
</svg>
